<svg width="32" height="33" viewBox="0 0 32 33" fill="none" xmlns="http://www.w3.org/2000/svg">
<g id="radio_button_unchecked_24dp_5F6368_FILL0_wght400_GRAD0_opsz24">
<path id="Vector" d="M16.0001 29.5717C14.1556 29.5717 12.4223 29.2217 10.8001 28.5217C9.17786 27.8217 7.76675 26.8717 6.56675 25.6717C5.36675 24.4717 4.41675 23.0606 3.71675 21.4384C3.01675 19.8161 2.66675 18.0828 2.66675 16.2384C2.66675 14.3939 3.01675 12.6606 3.71675 11.0384C4.41675 9.41614 5.36675 8.00503 6.56675 6.80503C7.76675 5.60503 9.17786 4.65503 10.8001 3.95503C12.4223 3.25503 14.1556 2.90503 16.0001 2.90503C17.8445 2.90503 19.5779 3.25503 21.2001 3.95503C22.8223 4.65503 24.2334 5.60503 25.4334 6.80503C26.6334 8.00503 27.5834 9.41614 28.2834 11.0384C28.9834 12.6606 29.3334 14.3939 29.3334 16.2384C29.3334 18.0828 28.9834 19.8161 28.2834 21.4384C27.5834 23.0606 26.6334 24.4717 25.4334 25.6717C24.2334 26.8717 22.8223 27.8217 21.2001 28.5217C19.5779 29.2217 17.8445 29.5717 16.0001 29.5717ZM16.0001 26.905C18.9779 26.905 21.5001 25.8717 23.5667 23.805C25.6334 21.7384 26.6667 19.2161 26.6667 16.2384C26.6667 13.2606 25.6334 10.7384 23.5667 8.6717C21.5001 6.60503 18.9779 5.5717 16.0001 5.5717C13.0223 5.5717 10.5001 6.60503 8.43341 8.6717C6.36675 10.7384 5.33341 13.2606 5.33341 16.2384C5.33341 19.2161 6.36675 21.7384 8.43341 23.805C10.5001 25.8717 13.0223 26.905 16.0001 26.905Z" fill="#667183"/>
</g>
</svg>
