<svg width="156" height="104" viewBox="0 0 156 104" fill="none" xmlns="http://www.w3.org/2000/svg">
<g id="Illustrations/running">
<circle id="Ellipse 570" cx="43.5" cy="60.5" r="42.5" fill="#D0D3D9"/>
<path id="Accent" fill-rule="evenodd" clip-rule="evenodd" d="M35.7031 42.8122C41.2467 44.2905 46.7301 46.0286 52.2271 47.6693C52.8456 47.8539 52.8439 47.8848 53.397 47.5517C54.9013 46.6456 56.4343 45.7849 57.985 44.9603C62.662 42.4734 67.4699 40.4834 72.6196 39.2174C76.2699 38.32 79.9811 37.6084 83.7042 37.0858C83.3255 38.2508 82.5909 39.4653 81.6831 40.2859C80.9792 40.9218 80.0197 41.2695 79.1498 41.6105C76.5643 42.6246 73.8572 43.3338 71.316 44.4611C68.7241 45.6109 67.0867 48.0012 66.5946 50.7745C66.5024 51.2933 66.508 51.3722 66.9338 51.634C67.4109 51.9275 67.991 52.0993 68.5171 52.2785C72.7417 53.7174 77.1966 54.6035 81.565 55.4768C83.8839 55.9404 86.2113 56.3713 88.5507 56.7185C90.0024 56.9341 91.5366 57.2233 93.0111 57.1373C99.3303 56.7686 103.076 49.2471 104.926 44.1596C110.635 47.2526 117.186 49.2294 123.581 50.1832C131.336 51.3397 141.105 51.4032 147.234 45.6888C150.154 42.967 151.946 39.2817 153.264 35.57C148.967 35.2016 144.69 34.5572 140.429 33.9054C139.685 33.7916 138.942 33.6757 138.198 33.5578C137.9 33.5103 137.44 33.3424 137.134 33.387C136.67 33.4544 136.07 33.958 135.659 34.1811C132.506 35.8922 129.247 37.4612 125.865 38.6653C124.053 39.3103 122.171 39.881 120.249 40.072C118.188 40.2771 116.078 39.8555 114.087 39.3523C109.093 38.0898 103.869 35.9536 99.7045 32.8752C98.6914 34.3197 96.8627 35.2983 95.1188 34.6012C93.209 33.8377 92.1473 31.8355 91.1239 30.1888C90.7514 29.5892 90.0487 29.585 89.3555 29.4081C87.4191 28.9142 85.459 28.5115 83.4892 28.1773C77.0207 27.08 70.3696 26.7078 63.8412 27.4647C57.4707 28.2034 51.1989 30.2584 45.5817 33.3471C43.1382 34.6908 40.7591 36.2477 38.7287 38.1713C37.4463 39.3861 35.9478 40.9761 35.7031 42.8122Z" fill="#C7EFEF"/>
<path id="Rectangle 281" d="M16.6608 66L32.6956 71.6467L31.0348 76.3628L15 70.7161L16.6608 66Z" fill="#FDFDFD"/>
<path id="Rectangle 282" d="M36.0001 42.9999L52.6956 46.6467L54.0001 53.9999L49.5001 51.9999L50.0001 60.4999L47.0001 60.4999L43.5001 54.4999L41.0001 61.9999L39.0001 60.9999L37.5001 52.9999L32.5001 59.9999L30 56.5002L32 48.5L35 45.7161L36.0001 42.9999Z" fill="#FDFDFD"/>
<path id="Ink" fill-rule="evenodd" clip-rule="evenodd" d="M54.9477 1.03154C56.9471 1.70086 58.7507 2.6843 60.5128 3.82935C61.3714 4.38734 62.2304 5.04032 63.1793 5.43545C64.0217 5.78594 64.9413 5.94544 65.8065 6.23344C69.6828 7.52391 73.8889 7.78345 77.8307 6.54284C81.8488 5.27814 85.2594 2.56219 89.4148 1.7103C93.4674 0.879457 97.5888 1.06321 101.48 2.56775C103.37 3.29854 104.964 4.52646 106.577 5.72227C108.123 6.86823 109.745 7.99853 110.941 9.52833C112.117 11.0307 112.795 12.9002 113.313 14.7182C113.612 15.7666 113.749 16.8492 113.728 17.9398C113.713 18.7028 113.309 19.4398 113.547 20.1773C113.88 21.2116 114.364 21.9719 114.239 23.1234C114.139 24.0508 113.717 24.8499 113.058 25.5009C112.382 26.1687 111.573 26.6273 110.672 26.917C109.99 27.1361 109.775 27.0807 109.379 26.4865C108.269 27.4907 107.477 28.7596 106.087 29.4228C105.398 29.7523 104.691 29.9109 103.931 29.9593C103.355 29.9958 102.827 30.0125 102.341 30.3626C101.83 30.7303 99.9639 32.3703 100.678 33.0153C101.094 33.3916 102.066 33.4662 102.596 33.6825C103.337 33.9849 104.05 34.356 104.722 34.7904C107.183 36.3794 109.632 37.3708 112.478 38.082C115.432 38.8204 118.411 39.2199 121.458 39.2309C124.227 39.241 127.128 39.0306 129.695 37.9097C130.927 37.3718 132.117 36.6584 133.125 35.765C134.131 34.8737 134.748 33.6343 135.782 32.8048C136.451 32.2679 135.832 31.4412 135.625 30.7042C135.205 29.2049 134.883 27.4981 134.756 25.9477C134.632 24.4417 134.424 22.94 134.157 21.4498C133.873 19.8699 133.283 18.3994 132.865 16.8565C132.557 15.7188 132.248 14.3835 132.605 13.2217C132.782 12.6454 133.174 12.0363 133.732 11.7613C134.231 11.5152 134.538 11.7504 134.985 11.7239C136.297 11.6468 137.309 12.1815 138.299 13.0565C138.834 13.5293 139.453 13.9432 139.963 14.4384C140.359 14.8234 140.453 15.4448 140.875 15.7862C141.569 14.0165 142.295 11.7669 144.647 12.7789C146.507 13.5798 146.747 16.5889 147.649 18.1576C148.157 17.7399 148.214 16.9168 148.411 16.3345C148.615 15.7319 148.96 15.0954 149.445 14.6692C150.504 13.7381 151.797 14.112 152.526 15.2273C152.916 15.8235 152.684 16.508 153.071 17.0968C153.455 17.6808 153.335 18.363 153.492 19.0431C153.691 19.9051 153.931 20.7545 154.091 21.6263C154.165 22.0293 154.273 22.4837 154.254 22.8974C154.246 23.0688 154.108 23.3637 154.15 23.533C154.206 23.7545 154.469 23.9537 154.566 24.1729C154.695 24.4673 154.647 24.6813 154.662 24.985C154.689 25.5317 154.835 25.9802 154.992 26.5202C155.387 27.8802 155.287 29.6017 154.701 30.8896C154.398 31.5573 154.185 32.0428 154.095 32.7573C154.036 33.2186 153.689 33.6388 153.71 34.1347C153.739 34.8247 155.585 35.8888 154.127 36.3466C153.519 36.5378 153.388 36.4379 153.222 37.1331C153.057 37.8233 152.87 38.4949 152.599 39.1524C152.025 40.5478 151.176 41.7972 150.375 43.0679C149.508 44.4434 148.598 45.7727 147.317 46.7984C146.129 47.7495 144.767 48.5232 143.411 49.2078C140.555 50.6502 137.376 51.4555 134.168 51.3775C130.748 51.2941 127.279 51.6173 123.889 51.0364C120.418 50.4416 117.032 49.4569 113.576 48.7966C112.023 48.4998 110.576 48.1762 109.164 47.4436C107.73 46.7005 106.3 45.9416 104.989 44.994C104.085 47.1591 103.599 49.416 102.304 51.4078C101.173 53.1461 99.8098 54.7805 98.1409 56.027C96.5107 57.2449 94.3806 58.1557 92.3279 58.2341C91.7015 58.2578 90.7385 57.9829 90.2891 58.4549C90.0641 58.691 90.0412 59.1602 89.9519 59.4634C89.8002 59.9795 89.58 60.4829 89.4579 61.0072C89.2727 61.8021 90.0191 61.8144 90.6733 62.1371C91.5504 62.57 92.407 63.0428 93.2551 63.5297C94.1214 64.0274 94.9476 64.5998 95.8153 65.0898C96.5604 65.5103 97.3298 65.8349 98.0471 66.3114C99.7423 67.4378 101.6 68.189 103.42 69.0804C105.369 70.0351 107.264 71.1 109.179 72.1197C112.973 74.1396 116.777 76.2358 120.359 78.6165C122.031 79.7278 123.638 80.8848 125.352 81.9356C126.951 82.916 128.776 84.0638 129.794 85.6723C130.588 86.9267 131.729 87.5209 133.041 88.2046C133.815 88.6074 134.293 88.6837 134.922 88.0243C135.538 87.3773 136.134 86.7337 136.785 86.1163C139.452 83.585 141.734 80.8142 143.958 77.8997C145.61 75.7357 147.874 73.1376 150.907 73.6117C151.816 73.7541 152.42 74.1771 153.093 74.7725C153.549 75.1766 154.374 75.4408 154.678 75.964C154.853 76.2661 154.927 76.6533 155.104 76.9703C155.289 77.3018 155.519 77.625 155.643 77.9874C155.852 78.6008 155.401 79.5753 155.851 80.0749C156.18 80.4407 155.874 81.3022 155.784 81.7155C155.618 82.4801 155.477 83.2561 155.214 83.9944C155.007 84.5755 154.804 85.372 154.368 85.8256C153.979 86.2303 153.523 86.1905 153.625 86.8913C153.204 86.7512 152.842 87.7589 152.723 88.0131C152.404 88.6957 152.056 89.2567 151.542 89.8226C150.243 91.253 148.757 92.221 147.072 93.1303C146.458 93.4619 145.184 93.9234 145.041 94.6901C144.904 95.4264 145.324 96.0243 145.029 96.8109C144.414 98.4471 143.033 100.172 141.906 101.492C140.893 102.68 139.909 103.473 138.284 103.195C136.844 102.948 135.419 102.213 134.22 101.398C132.777 100.416 131.247 99.6778 129.689 98.8985C128.921 98.5152 128.154 98.1611 127.489 97.6102C126.871 97.0982 126.334 96.5215 125.618 96.1412C125.108 95.8702 124.441 95.6784 124.229 95.0753C123.997 94.4176 124.42 94.0071 124.781 93.5357C125.023 93.2192 125.157 93.1702 124.948 92.9161C124.781 92.7133 124.323 92.5413 124.093 92.4179C123.536 92.1191 122.98 91.8579 122.385 92.1861C121.721 92.5523 121.267 93.3093 120.77 93.8596C120.174 94.5185 119.505 95.1191 118.851 95.72C117.555 96.9123 116.134 97.9806 114.868 99.2008C114.578 99.4797 114.008 100.187 113.53 100.053C113.177 99.9545 113.363 99.745 113.181 99.5837C112.985 99.4102 112.819 99.408 112.568 99.2202C111.945 98.7535 111.755 97.8583 111.101 97.3751C110.429 96.8784 109.599 96.5214 108.872 96.1126C105.551 94.2465 102.316 92.2338 99.2801 89.927C97.7581 88.7705 96.3204 87.5154 94.846 86.3003C94.1521 85.7285 93.4482 85.1018 92.6765 84.6372C91.9725 84.2134 91.1903 83.9173 90.4732 83.5107C88.9368 82.6398 87.2932 81.9732 85.7723 81.0741C85.0572 80.6514 84.5271 80.0835 83.862 79.6125C83.2796 79.2004 82.7947 78.9562 82.3614 78.3559C82.1554 78.8093 81.5903 78.2178 81.3863 78.079C81.2257 77.9694 81.0198 77.8921 80.871 77.767C80.7211 77.641 80.6304 77.3605 80.5166 77.2729C80.2646 77.0789 79.9719 77.1232 79.6335 77.0018C79.1813 76.8396 78.5849 76.4074 78.2373 76.0773C77.9966 75.8491 78.3892 76.0286 77.9826 75.7487C77.7935 75.6183 77.4689 75.5833 77.2564 75.4452C76.7518 75.1178 76.2885 74.6972 75.8066 74.3358C74.9336 73.6815 73.8047 73.0857 73.3092 72.0654C70.6476 74.2509 68.0773 76.6228 65.0209 78.2584C62.0687 79.8382 58.6541 80.5556 55.502 81.6456C52.2586 82.767 48.9829 83.8942 45.6852 84.8448C44.082 85.3068 42.4287 85.6386 40.7901 85.9509C39.1092 86.2712 37.4516 86.1757 35.765 86.3568C34.9358 86.4457 34.1057 86.4169 33.2768 86.4972C32.5135 86.5712 31.7733 86.765 31.0154 86.8659C30.3473 86.9548 29.5937 86.8797 28.9512 87.0615C28.4798 87.1947 27.8571 87.6673 27.5118 87.0524C27.2589 87.4312 27.1785 87.2523 26.8491 87.2282C26.4977 87.2023 26.392 87.2174 26.048 87.2833C25.4887 87.3901 24.8714 87.4313 24.3966 86.9919C24.1794 87.7793 22.0742 87.0633 21.8231 86.5429C21.5403 87.3764 18.9831 86.6572 18.9461 85.8749C18.9149 85.2127 19.3547 84.2604 19.5362 83.6382C19.8325 82.6228 20.1997 81.6296 20.5833 80.6445C20.9892 79.6028 21.4054 78.5644 21.8229 77.5271C22.0064 77.0714 22.1797 76.6083 22.389 76.1637C22.4918 75.9456 22.7591 75.6202 22.7547 75.3682C22.7417 74.6322 21.4224 74.5798 20.8646 74.3963C20.4427 74.2573 20.0144 74.1108 19.6137 73.9183C19.3229 73.7785 18.9739 73.4575 18.652 73.413C17.9145 73.3109 18.0816 74.1456 18.0014 74.6585C17.8985 75.3184 17.5349 75.6578 16.8359 75.6627C16.0194 75.6682 13.6909 74.2641 13.2516 75.3344C13.0457 75.8358 13.1016 76.7975 13.0261 77.3363C12.9022 78.2195 12.9513 79.0978 13.0723 79.9785C13.2708 81.4287 13.9262 83.263 13.1885 84.653C11.7156 87.4291 6.60824 85.756 4.97806 84.0088C2.57733 81.4354 2.6474 77.5788 3.79774 74.4631C4.35707 72.9478 5.16737 71.324 6.22659 70.0917C6.69717 69.5441 7.59234 69.0158 7.74763 68.2634C7.87665 67.6394 7.39158 67.0644 7.49365 66.4249C7.61491 65.6658 8.25712 65.2055 8.8076 64.745C9.38058 64.2659 9.93806 63.7436 10.591 63.3724C12.102 62.5139 13.8155 63.0321 15.3177 63.6626C16.9604 64.3519 18.534 65.2764 20.0013 66.2827C20.7277 66.7808 21.3436 67.229 22.2049 67.47C22.8653 67.6549 23.5325 67.8365 24.1959 68.0099C24.8219 68.1736 25.3496 68.2954 25.789 67.7543C26.2726 67.1587 26.4327 66.918 27.2696 66.8924C28.1609 66.8653 29.0529 66.915 29.9434 66.949C30.1315 66.9563 30.5586 66.8977 30.707 67.0545C30.8392 67.1941 30.6477 67.4855 30.7708 67.5741C30.9652 67.7135 32.0694 66.1537 32.1639 67.4164C32.2242 66.8035 32.8674 67.1003 33.226 67.1809C33.3565 67.2103 33.4867 67.245 33.6159 67.2736C33.756 67.2268 33.8726 67.2626 33.9647 67.3809C34.1121 67.4124 34.2118 67.3561 34.2638 67.2124C35.8221 67.1899 37.394 67.2881 38.9561 67.2798C40.7626 67.2702 42.5794 67.2525 44.3689 66.991C45.0319 66.894 45.6951 66.7602 46.3592 66.6789C46.6636 66.6418 46.9189 66.6742 47.2158 66.6939C47.3241 66.7144 47.4223 66.7592 47.5106 66.8286C47.5559 66.7393 47.6234 66.6718 47.713 66.6258C48.8495 66.293 50.0188 66.0673 51.1736 65.7768C51.9821 65.5735 52.6598 65.4165 53.4646 65.3591L53.6171 65.3495L53.9405 65.4448C53.9879 65.3295 54.0648 65.2395 54.1714 65.175C54.4338 65.0676 54.6567 65.026 54.9395 64.9972C56.065 64.8823 57.1694 64.8941 58.2333 64.7295C58.7937 64.6428 60.841 64.3253 61.2187 64.8809C61.5082 64.2044 63.5929 65.1255 64.2035 64.7258C63.2561 63.4337 62.8433 62.0511 62.5752 60.4886C62.2829 58.7865 62.0994 56.996 62.5315 55.3006C62.9297 53.7385 63.7972 52.1351 64.9829 51.0361C66.1296 49.9732 66.3986 48.7017 67.1637 47.39C68.7577 44.6568 71.3839 42.9871 74.3096 41.9787C75.9029 41.4297 77.5227 40.9727 79.1298 40.4681C80.4351 40.0583 81.528 39.4719 82.1882 38.2183C76.6302 38.2183 71.3118 39.9421 66.2227 42.0331C63.6911 43.0731 61.1708 44.1554 58.6704 45.2686C57.3976 45.835 56.139 46.4408 54.9516 47.1723L54.6233 47.3745C54.2407 47.6112 53.8604 47.8535 53.5036 48.1264C53.4186 48.1916 52.9542 48.4624 52.9269 48.5528C52.7147 49.2562 53.8838 50.3873 54.1873 50.9906C54.6004 51.8122 55.0051 52.7729 55.056 53.6991C55.1165 54.8068 54.4101 55.3611 53.3216 55.1337C51.9903 54.8556 50.9825 53.7462 49.9254 52.9748C49.6897 53.6827 49.9942 54.4971 50.1592 55.1869C50.3856 56.1331 50.6106 57.0937 50.7716 58.0537C50.9992 59.4107 50.8375 60.942 49.4874 61.6531C46.047 63.4648 44.293 58.6846 43.5944 56.2967C43.1221 56.6372 43.1772 57.8851 43.0903 58.4069C42.9234 59.4108 42.7319 60.4888 42.286 61.4107C41.9445 62.1168 41.3641 62.9412 40.5098 63.0173C39.5833 63.0999 38.8365 62.3032 38.4215 61.568C37.7044 60.2981 37.5353 58.8822 37.4787 57.4586C37.4661 57.145 37.557 54.2412 37.24 54.1585C36.308 55.8284 35.788 57.6853 34.6931 59.278C33.7336 60.6737 32.2897 61.6202 30.9923 60.0066C28.9832 57.5075 29.6261 53.8959 30.4492 51.0843C30.9278 49.4492 31.5793 47.8884 32.4576 46.4263C32.8218 45.8198 33.2625 45.3647 33.7147 44.8302C34.0876 44.3892 34.2311 44.1822 34.0703 43.6741C33.9766 43.3778 33.8881 43.367 33.9716 43.0395C34.0317 42.8045 34.2119 42.5153 34.3148 42.297C34.6092 41.6734 34.9183 41.0579 35.2789 40.4695C36.0498 39.2125 37.0994 38.1668 38.2024 37.197L38.3132 37.1L38.308 37.1048C38.2369 37.1702 38.753 36.7771 38.7424 36.7761L38.7395 36.7773L38.7532 36.7692C38.9435 36.6447 39.0159 36.2356 39.2325 36.6008L39.2483 36.628C39.2822 36.0908 39.7346 35.7854 40.1226 35.4844C40.2671 35.3723 40.4116 35.2165 40.5871 35.1494C40.7092 35.1028 40.9932 35.1486 41.0816 35.0834C41.2536 34.9569 41.3376 34.7063 41.501 34.5573C41.6647 34.4082 41.8907 34.3385 42.077 34.2248C42.5336 33.946 42.9532 33.6048 43.3987 33.3077C44.3449 32.6765 45.3328 32.1077 46.3451 31.5894C48.4746 30.4989 50.7349 29.6214 52.9968 28.8475C54.9903 28.1654 57.0566 27.5334 59.1041 27.0366C61.2057 26.5264 63.4144 26.6534 65.5608 26.4437C69.9355 26.0161 74.5532 26.1023 78.9258 26.5291C81.0689 26.7383 83.1998 27.0654 85.3133 27.4743C87.3632 27.8708 89.4953 28.322 91.3161 29.3939C91.7042 29.6222 92.4052 30.3547 92.8601 30.3278C93.2431 30.3052 93.5754 29.5987 93.7553 29.3203C94.1829 28.659 94.7204 28.0513 95.0836 27.3546C95.5308 26.4964 95.7599 25.5319 96.0964 24.629C94.5363 24.844 92.8977 24.9835 91.4002 24.3858C90.0442 23.8444 89.1303 22.7626 88.1174 21.7637C87.0505 20.7116 85.9077 19.9986 84.3814 19.9019C82.65 19.7921 81.0886 20.4135 79.4959 20.9925C76.1311 22.2159 72.767 23.5601 69.3042 24.4829C67.6119 24.934 65.8719 25.29 64.1183 25.3702C63.2254 25.4108 62.3218 25.3707 61.4388 25.5356C61.0726 25.6038 60.9628 25.6609 60.6733 25.4992C60.7125 25.5213 60.3048 24.8432 60.2239 25.1071C60.146 25.3614 60.2735 25.5602 60.0506 25.7518C59.7889 25.9769 59.221 25.8674 58.9178 25.8414C58.4637 25.8027 58.1018 25.6486 57.6646 25.546C56.9887 25.3875 56.2313 25.492 55.5426 25.4054C55.2226 25.3651 54.9903 25.2845 54.7025 25.1959C54.4008 25.1031 54.5952 25.1149 54.2844 25.0753C54.0092 25.0402 53.8534 25.0765 53.5203 24.9682C53.2224 24.8713 52.947 24.8046 52.6423 24.7335C52.3632 24.6687 52.138 24.552 51.8785 24.476C52.2046 24.5715 51.4596 24.2763 51.492 24.3549L51.4948 24.36L51.4921 24.3573C51.4113 24.2662 51.3176 24.0829 51.1575 24.0546L51.1246 24.0509C51.6515 24.8597 49.3355 24.0051 49.182 23.9585C47.9022 23.5691 46.5911 22.6852 45.2537 22.6038C43.9481 22.5243 42.6817 23.4141 41.6305 24.074C40.3611 24.871 39.0974 25.6745 37.8329 26.4796C35.0377 28.259 32.011 29.8506 28.874 30.9321C27.3483 31.4581 25.7848 31.88 24.2371 32.3356C23.5394 32.5409 22.7774 32.6253 22.1106 32.9198C21.6599 33.1189 21.0103 33.7146 20.5549 33.187C20.3715 33.6486 19.4808 33.625 19.1032 33.6393C19.0451 33.6415 19.1384 33.7522 19.0055 33.7429C18.8098 33.7291 18.7575 33.5391 18.6033 33.4994C18.2902 33.4189 18.2577 33.5395 17.9475 33.6592C17.5445 33.8147 17.6213 33.6801 17.2649 33.6434C17.0609 33.6223 16.8448 33.7343 16.6405 33.7407C16.5575 33.7434 16.4485 33.6051 16.3284 33.6072C16.2129 33.6094 15.9421 33.7473 15.7891 33.7702C15.4061 33.8278 14.9554 33.7896 14.5692 33.7724C14.0166 33.7476 8.48179 33.2542 8.87901 32.0971C8.21299 32.7115 6.6682 31.7072 5.97395 31.3882C5.71542 31.2694 5.69874 31.1541 5.55306 31.0202C5.59331 30.8593 5.52443 30.7876 5.3464 30.8048C5.30834 30.8004 5.2701 30.7962 5.23221 30.7918C4.92719 30.6363 4.81856 30.6399 4.57569 30.3672C4.25181 30.0032 3.65559 29.6741 3.48767 29.1998C3.4427 29.0725 3.49053 28.8527 3.44472 28.7527C3.38611 28.6243 3.23183 28.6391 3.19612 28.5351C3.18366 28.4987 3.24328 28.26 3.2389 28.2561C2.95881 28.0217 2.56403 28.1329 2.23947 27.8514C1.34261 27.0731 0.801462 25.512 0.543435 24.4034C-0.131443 21.504 -0.361848 18.5886 0.947991 15.8461C1.58464 14.5127 2.36411 13.2445 3.22476 12.0448C3.46291 11.713 3.71234 11.2749 4.01618 10.9948C4.15261 10.869 4.33114 10.8432 4.39767 10.7679C4.75271 10.3662 4.93679 9.84969 5.41259 9.45878C5.94229 9.0234 6.46457 8.57589 7.04968 8.2158C7.58662 7.88518 8.25526 7.67179 8.74757 7.36256C8.88271 7.27768 8.83623 7.14378 8.98293 7.04289C9.13838 6.93594 9.33948 6.92769 9.51565 6.87564C9.72467 6.81417 9.98387 6.70082 10.2008 6.68213C10.6059 6.64693 10.7418 6.76297 11.0473 7.05064C11.0473 5.94358 13.0859 5.78947 13.9105 5.78745C14.291 5.78644 16.203 5.61583 16.1662 6.19858C16.6018 5.6229 17.9259 6.05121 18.502 6.22384C19.1932 6.43084 19.6304 6.93729 20.0739 7.47827C20.1561 7.30681 20.2384 7.13519 20.3208 6.96373C20.4466 7.05165 20.872 7.19784 20.7349 7.42976C21.233 6.99034 20.9522 7.35229 21.3788 7.43044C21.5663 7.46479 21.7278 7.39557 21.925 7.37216C21.9414 7.63255 21.8283 7.71693 21.6672 7.89849C22.0535 7.90573 23.5384 7.75145 22.4394 8.23702C22.5862 8.49976 23.2832 8.40747 23.5282 8.44284C23.6581 8.46153 23.9817 8.46827 24.0591 8.56326C24.1102 8.62575 24.0204 8.79855 24.0318 8.81388C24.1366 8.95586 23.919 9.02879 24.1339 9.06988C24.1868 9.07999 24.354 8.91207 24.3919 8.91274C24.6707 8.91712 24.4751 8.86171 24.7707 8.90432C24.875 8.91931 25.0751 9.03822 25.209 9.06567C27.2277 9.47882 29.6953 7.92459 31.1618 6.72137C32.9144 5.28369 34.44 3.74699 36.547 2.81381C38.5853 1.91123 40.8559 1.19946 43.0222 0.683241C47.0282 -0.27139 51.0064 -0.288064 54.9477 1.03154ZM105.941 93.0254C106.006 93.0599 106.071 93.0944 106.136 93.1288C106.228 93.082 106.321 93.0353 106.413 92.9885C106.148 92.8628 106.13 92.8078 105.941 93.0254ZM127.454 87.2993C126.969 87.6058 126.552 88.2979 126.127 88.7108C125.53 89.2906 124.906 89.8416 124.283 90.3929C125.001 90.642 126.043 91.6502 126.82 91.1934C127.205 90.9672 127.448 90.3019 127.691 89.9491C128.068 89.4027 128.509 88.8899 128.952 88.3966C129.409 87.8881 127.963 86.9779 127.454 87.2993ZM81.9302 76.8342C82.1227 76.9149 82.5441 77.3794 82.3485 77.5421C82.1505 77.313 81.8845 77.1475 81.9302 76.8342ZM20.1259 69.4831C19.7744 69.7868 19.3781 70.4209 19.1334 70.8203C18.8577 71.2701 18.8479 71.4968 19.269 71.797C20.0826 72.3772 21.2646 72.5475 22.2083 72.8181C22.7121 72.9626 23.3349 73.3261 23.7629 72.8666C24.1866 72.4119 24.1876 71.5647 24.3783 71.0008C24.5327 70.5441 24.698 70.0912 24.8583 69.6366C23.9688 69.726 23.0743 69.7322 22.1999 69.5332C21.5651 69.3888 20.6873 68.9979 20.1259 69.4831ZM35.4891 45.1683C34.7709 46.1437 34.1302 47.1768 33.5653 48.2482C32.6306 50.0215 31.904 51.9043 31.4437 53.8564C31.1175 55.2393 30.6408 57.1836 31.3858 58.5103C33.0085 61.4004 36.3022 53.0574 36.805 52.1847C37.1043 51.6652 37.5688 51.1078 38.0833 51.7758C38.5054 52.324 38.368 53.2027 38.3875 53.8483C38.4458 55.767 38.178 58.0648 38.9452 59.8701C39.197 60.4627 39.8639 61.3184 40.6168 61.0493C41.2917 60.8078 41.6288 59.6455 41.8375 59.0467C42.4976 57.1524 42.9658 54.8371 42.9872 52.8327C42.9914 52.43 42.6301 49.7679 43.5617 50.3568C44.1711 50.7419 44.1461 52.6109 44.2052 53.2224C44.4368 55.6117 44.9087 59.6692 47.8732 60.0712C48.5258 60.1598 49.2645 60.0054 49.6467 59.4186C50.1217 58.6895 49.644 57.7091 49.4776 56.9428C49.1908 55.6216 48.8659 54.2597 48.8373 52.8997C48.8197 52.066 48.9018 50.68 50.0728 51.0017C51.4841 51.3893 52.0809 53.2354 53.6658 53.2972C53.6673 52.9257 53.4617 52.6228 53.2874 52.3124C52.7235 51.3091 51.6964 50.45 51.3488 49.3401C51.2348 48.9759 51.3534 48.4284 51.1278 48.1249C50.9148 47.8384 50.4339 47.765 50.1124 47.7001C47.9719 47.2678 45.8676 46.6825 43.737 46.1841C41.4594 45.6516 39.3477 45.0759 37.2148 44.1381C36.2537 43.7155 36.0343 44.4281 35.4891 45.1683ZM86.558 60.1332C86.8723 60.2824 87.1839 60.4379 87.5018 60.579C87.7784 60.7022 87.8869 60.6041 87.997 60.3458C87.7974 60.3045 86.674 59.9053 86.558 60.1332ZM73.0709 27.7672C68.998 27.8866 65.0161 27.9387 61.0019 28.7119C59.082 29.0818 57.2 29.5102 55.3172 30.0354C54.5219 30.2572 53.8208 30.4885 53.1272 30.9309C52.8693 31.0953 52.1867 31.6115 52.082 31.0215C51.739 31.3501 51.0704 32.3532 50.5222 31.7959C50.426 32.1988 50.1264 32.1863 49.834 32.3233C49.7311 32.3714 49.675 32.5353 49.5426 32.5948C49.5093 32.6096 49.4982 32.3794 49.4496 32.3755C49.275 32.3617 49.1372 32.7295 49.0368 32.8233C48.7952 33.0482 48.5688 33.1511 48.2484 33.2328C48.1093 33.2792 47.9667 33.3091 47.8206 33.3222C47.6487 33.3928 47.5456 33.3421 47.5116 33.1701C47.2743 33.174 47.1006 33.2602 46.852 33.3727C47.3885 33.4957 46.486 33.6309 46.3661 33.6446C46.3513 34.0454 46.6939 33.7914 46.9152 33.8745C46.8128 34.3775 45.8804 34.7616 45.4967 35.0083C45.4312 34.8688 45.3657 34.7294 45.3 34.5901C45.1939 34.6927 45.1117 34.8107 45.0529 34.9443C45.0133 35.106 44.8985 35.1619 44.7085 35.112C44.5306 35.2532 44.504 35.1878 44.3947 35.3866C44.2817 35.5926 44.6159 35.9934 44.1305 35.8208C44.1305 36.5049 43.495 36.0903 43.6063 35.9127C43.1256 35.8662 42.9205 36.7461 42.9744 37.0894C42.7445 36.8616 42.6035 36.8904 42.3726 37.0683L42.3522 37.0843L42.3644 37.0757C42.5419 36.9555 42.3593 37.4469 42.3751 37.4412L42.3773 37.4392C41.8892 38.0824 41.9352 37.3622 42.0863 36.9827C41.7555 37.1153 41.6929 37.474 41.4274 37.6765C41.1911 37.8567 41.1246 37.773 40.9213 37.7999C40.6082 37.8414 40.7027 37.5838 40.5654 37.9288C40.5073 38.075 40.5954 38.3369 40.5954 38.4964C40.7311 38.3108 40.6798 38.0172 40.925 37.9109C40.8517 38.4487 39.8058 40.2963 39.3661 39.2075C38.9383 39.5047 39.4097 39.8305 39.1289 40.2286C38.9201 40.0272 38.87 39.7067 38.8935 39.4321C38.7623 39.6066 38.7665 39.8271 38.6637 40.0036C38.5566 40.1877 38.4444 40.2025 38.3927 40.4026C38.3144 40.7064 38.582 40.5576 38.4407 40.8799C38.3698 41.0418 38.0377 41.1834 37.907 41.2745C37.4492 41.5935 36.9864 41.9631 37.4307 42.4933C38.1265 43.3231 39.9598 43.4181 40.9444 43.5575C43.0439 43.855 45.0901 44.349 47.1587 44.8066C48.4044 45.0823 49.6245 45.3891 50.8462 45.7568C51.7235 46.0206 52.9354 46.1846 53.3984 47.0929C55.8439 44.7549 59.1049 43.535 62.1231 42.1327C65.3922 40.614 68.7681 39.2038 72.2313 38.1888C75.3018 37.2888 78.451 36.9472 81.6231 36.637C82.459 36.5551 83.748 36.3458 84.4929 36.8593C84.9529 37.1763 84.9741 37.6563 84.6219 38.0804C84.4313 38.3101 84.2255 38.2505 84.1089 38.6601C84.0186 38.9767 84.0682 39.2166 84.1509 39.53C83.9393 39.3644 83.5605 39.4631 83.4522 39.1707L83.4416 39.1381L83.4317 39.1728C83.287 39.7434 84.296 39.8222 83.9866 40.5064L83.9666 40.5481C83.8596 40.7571 83.8593 40.0866 83.7652 40.0818C83.5092 40.0684 83.2995 40.6664 83.1942 40.8321C83.6703 40.8321 83.4891 41.1784 83.2336 41.3532C83.0512 41.478 82.7437 41.5142 82.5318 41.6173C82.1092 41.8234 81.7377 42.1256 81.3041 42.3221C80.8295 42.5376 80.4122 42.5509 79.9408 42.6787C79.8678 42.6984 79.5783 42.8069 79.549 42.8094C79.5091 42.8129 79.5 42.9352 79.466 42.9399C79.1646 42.9825 78.9369 42.7028 78.6452 42.8168C78.5336 42.8606 78.5915 43.1333 78.4947 43.1951C78.3877 43.2633 78.0847 43.1762 77.9554 43.169C77.6441 43.1511 77.5963 43.11 77.3494 43.2544C76.9249 43.5023 76.7088 43.8375 76.1367 43.8983C75.6894 43.9459 75.401 43.8614 74.9753 44.0291C74.5444 44.1987 74.1363 44.2363 73.7164 44.35C73.6632 44.3645 73.6491 44.5465 73.6058 44.5592C73.4668 44.6003 73.3008 44.5689 73.1681 44.6097C72.8632 44.7035 72.6158 44.787 72.3327 44.9553C71.0883 45.6948 69.7192 46.8049 68.7435 47.8707C68.2981 48.3573 67.0556 49.5829 67.4608 50.2873C67.7207 50.7392 68.6181 50.9588 69.0656 51.1496C69.733 51.4344 70.4232 51.6418 71.0979 51.9055C71.9369 52.2336 72.698 52.7432 73.5537 53.0289C74.3797 53.3046 75.2634 53.359 76.1167 53.5062C79.8082 54.1429 83.4248 55.1667 87.1185 55.8017C89.1441 56.15 91.2122 56.5656 93.2697 56.2374C95.083 55.948 96.8193 55.146 98.2675 54.0255C100.903 51.9865 102.74 49.0915 103.663 45.9067C103.854 45.2489 103.894 43.6032 104.509 43.2006C105.022 42.8655 105.291 43.6042 105.624 43.8961C106.164 44.3702 106.956 44.5536 107.607 44.8241C109.216 45.4936 110.679 46.2003 112.38 46.6532C114.105 47.1121 115.854 47.4721 117.598 47.8505C121.133 48.6177 124.507 49.3433 128.14 49.355C131.736 49.3665 135.345 49.5017 138.9 48.8395C142.01 48.2603 145.138 46.6779 147.463 44.5295C148.637 43.4447 149.543 42.0746 150.466 40.7795C150.961 40.0849 151.422 39.3649 151.808 38.6038C152.093 38.0445 152.581 37.2345 152.631 36.6002C152.676 36.0335 152.344 36.114 151.778 36.0561C150.907 35.9671 150.033 35.9107 149.161 35.8211C147.404 35.6409 145.652 35.411 143.895 35.2242C142.102 35.0336 140.321 34.775 138.579 34.3001C138.059 34.1581 137.674 33.9791 137.306 34.485C137.069 34.8107 137.074 35.554 136.579 35.0083C135.628 36.209 134.237 36.928 132.938 37.6815C131.532 38.4969 130.166 39.3941 128.676 40.0524C125.465 41.4713 121.927 41.3587 118.52 40.9042C115.058 40.4422 111.55 39.8463 108.297 38.5289C106.804 37.9247 105.522 37.0055 104.184 36.1283C103.554 35.7152 102.9 35.3753 102.231 35.031C101.477 34.643 101.016 34.0676 100.333 33.6191C99.8735 35.1163 98.105 35.631 96.7083 35.6978C94.9642 35.7814 93.5544 34.9487 92.4966 33.5962C91.6185 32.4735 91.4479 30.7941 90.0887 30.1796C88.538 29.4786 86.7203 29.2 85.0607 28.8739C81.163 28.1084 77.0427 27.6505 73.0709 27.7672ZM81.5832 41.3997C81.8072 41.5661 81.7331 41.4745 81.7331 41.9174C81.4726 41.9289 81.5121 41.572 81.5832 41.3997ZM82.4688 41.0165C82.3933 41.1923 82.7326 41.4034 82.8419 41.4308C82.8486 41.3741 82.683 40.5178 82.4688 41.0165ZM39.936 38.4447C39.7275 38.7468 39.8452 38.9319 40.1767 38.8132L40.2041 38.8027L39.936 38.4447ZM44.1249 35.5403L43.9265 35.6242C43.8329 35.7137 43.7395 35.8029 43.6461 35.8922C43.9188 35.8391 44.1081 35.8801 44.1249 35.5403ZM45.2237 35.1159C45.0871 34.8373 44.6177 35.3899 44.6073 35.5193C44.7167 35.4545 45.3827 35.4403 45.2237 35.1159ZM45.6645 34.1315C45.5504 34.292 45.5737 34.4207 45.7342 34.5175C45.8674 34.3395 45.9687 34.145 46.0375 33.9336C45.8597 33.8044 45.7278 33.9792 45.6645 34.1315ZM135.539 14.2449C135.195 14.3992 135.375 14.9304 135.409 15.2182C135.568 16.5892 135.822 17.9465 135.979 19.3172C136.2 21.245 136.231 23.196 136.593 25.1066C136.923 26.849 137.479 28.541 137.773 30.2914C137.97 31.4625 137.595 32.8156 138.991 33.1708C140.248 33.4903 141.68 33.5076 142.967 33.6481C144.626 33.829 146.288 33.9179 147.954 33.9986C148.743 34.0367 149.556 34.0466 150.337 34.1662C150.797 34.2366 151.37 34.5416 151.724 34.1158C152.068 33.7018 152.069 32.6482 152.176 32.1196C152.318 31.4219 152.445 30.7204 152.515 30.0111C152.672 28.4054 152.441 26.8153 152.228 25.2253C151.999 23.5115 151.823 21.7903 151.586 20.0781C151.433 18.9744 151.451 17.1922 150.691 16.3014C149.999 18.3695 149.811 20.5652 149.776 22.7337C149.769 23.1992 149.464 25.8746 148.654 24.5703C148.429 24.2076 148.426 24.0004 148.076 23.6937C147.715 23.3776 147.589 23.1248 147.467 22.6461C147.246 21.779 147.211 21.0166 146.733 20.2369C145.76 18.65 145.366 16.6854 143.918 15.4043C143.903 16.8934 143.688 18.5039 143.965 19.9747C144.139 20.899 144.852 22.2294 144.264 23.1438C143.971 23.5999 143.801 23.4638 143.456 23.2347C143.235 23.0879 143.269 23.0195 142.991 22.8725C142.726 22.7323 142.518 22.7389 142.267 22.5432C141.379 21.8506 141.309 20.6472 141.019 19.6508C140.379 17.4512 138.165 16.0927 136.469 14.7322C136.285 14.5841 135.823 14.1177 135.539 14.2449ZM102.082 18.7012C100.782 19.2203 99.4418 19.4181 98.0606 19.1248C98.0617 19.4283 98.4996 19.9215 98.1614 20.096C98.0808 20.1376 97.6205 19.9383 97.5309 19.9151C97.0327 19.7859 96.3613 19.5637 95.8406 19.6697C95.2896 19.7819 95.3087 20.1388 95.6688 20.543C96.1742 21.1104 97.4429 21.1335 97.4573 22.075C97.4633 22.482 97.2124 22.992 97.1586 23.4119C97.0785 24.0398 96.9909 24.6626 96.8433 25.2792C96.5897 26.3393 96.1792 27.3477 95.6901 28.32C95.2687 29.1576 94.7564 30.0303 93.9717 30.5777C93.4602 30.9344 93.6573 30.7734 93.7576 31.2992C93.8248 31.6514 93.8136 31.9137 93.3588 31.8268C93.2717 31.8 93.1848 31.7734 93.0979 31.7466C94.1644 33.4942 96.8614 34.5957 98.7078 33.4295C97.9292 32.8019 98.9859 31.7078 99.432 31.2443C100.1 30.5499 100.8 29.7509 101.517 29.117C102.614 28.1465 104.05 28.6188 105.348 28.2105C106.661 27.7974 107.617 26.8651 108.466 25.8233C109.222 24.8954 110.225 23.7599 110.327 22.5039C110.347 22.258 110.228 21.9697 110.271 21.7371C110.315 21.5 110.459 21.4691 110.534 21.3139C110.687 20.9944 110.725 20.6654 110.749 20.2996C110.828 19.1058 110.449 18.9183 109.328 18.61C108.675 18.4301 108.012 18.2889 107.358 18.1133C106.733 17.9457 106.176 17.6232 105.561 17.4433C104.264 17.0645 103.224 18.2455 102.082 18.7012ZM105.348 26.582C106.379 27.2076 104.829 27.2293 104.228 26.9527C103.418 26.5791 103 25 105.348 26.582ZM107.365 21.0021C108.301 22.1203 109.341 24.393 107.292 24.853C106.659 24.9949 105.68 25.2243 105.044 25.0504C104.135 24.8016 104.373 23.6159 105.279 23.5638C105.816 23.533 107.048 23.9578 107.367 23.3341C107.54 22.9959 107.147 22.4585 107.087 22.1209C107.01 21.6866 107.08 21.3395 107.365 21.0021ZM51.4948 24.36L51.4955 24.3612C51.4989 24.3657 51.5041 24.3713 51.5113 24.3777L51.515 24.3807L51.5081 24.3741L51.4948 24.36ZM109.219 21.4019C109.869 21.4004 109.546 22.781 109.224 23.0168C108.645 23.4399 108.398 21.4036 109.219 21.4019ZM104.934 22.4428C104.18 22.5343 104.35 20.7294 105.037 20.674C105.939 20.6011 105.806 22.3372 104.934 22.4428ZM111.458 19.4472C111.368 19.6311 111.437 21.4218 111.653 21.4557C111.711 21.0183 111.679 20.5785 111.673 20.1393L111.672 20.0283C111.677 20.0352 111.713 18.9283 111.458 19.4472Z" fill="#142541"/>
</g>
</svg>
